<svg width="27" height="27" viewBox="0 0 27 27" fill="none" xmlns="http://www.w3.org/2000/svg">
<path id="Darkmode" d="M13.4754 27C9.7161 27 6.53037 25.6939 3.91823 23.0818C1.30608 20.4696 0 17.2839 0 13.5246C0 9.76525 1.3067 6.57133 3.92009 3.9428C6.53348 1.31427 9.72073 0 13.4818 0H13.9542C14.1238 0 14.3661 0.0121131 14.681 0.0363392C14.0269 0.908479 13.5182 1.85935 13.1548 2.88896C12.7914 3.91857 12.6097 4.99058 12.6097 6.10498C12.6097 8.40847 13.4218 10.3713 15.0459 11.9935C16.6701 13.6156 18.644 14.4266 20.9677 14.4266C22.0579 14.4266 23.1238 14.2692 24.1655 13.9542C25.2073 13.6393 26.1521 13.179 27 12.5734V13.4818C27 17.2369 25.6857 20.4287 23.0572 23.0572C20.4287 25.6857 17.2347 27 13.4754 27Z" fill="white"/>
</svg>
